<svg fill="none" height="42" viewBox="0 0 45 42" width="45" xmlns="http://www.w3.org/2000/svg">
    <mask fill="white" id="path-1-inside-1">
        <path clip-rule="evenodd"
            d="M19.5 37.2421C21.2293 37.2421 22.906 37.0791 24.5024 36.7731L27.5061 40.2916C28.6586 41.6416 30.8587 41.0281 31.0442 39.305L31.594 34.1989C36.1055 31.6125 39 27.6115 39 23.121C39 15.3222 30.2696 9 19.5 9C16.0147 9 12.7429 9.66215 9.91157 10.8222L6.18419 9.78281C5.44809 9.57754 4.73716 10.2326 4.89705 10.9689L5.41528 13.3551C2.06091 15.8913 0 19.3319 0 23.121C0 27.3731 2.59528 31.1863 6.70133 33.7751C6.70331 33.829 6.70749 33.8833 6.71398 33.9381L7.31533 39.0092C7.51703 40.7102 9.68397 41.3145 10.8372 39.9913L13.7729 36.6232C15.5838 37.0255 17.507 37.2421 19.5 37.2421Z"
            fill-rule="evenodd" />
    </mask>
    <path clip-rule="evenodd"
        d="M19.5 37.2421C21.2293 37.2421 22.906 37.0791 24.5024 36.7731L27.5061 40.2916C28.6586 41.6416 30.8587 41.0281 31.0442 39.305L31.594 34.1989C36.1055 31.6125 39 27.6115 39 23.121C39 15.3222 30.2696 9 19.5 9C16.0147 9 12.7429 9.66215 9.91157 10.8222L6.18419 9.78281C5.44809 9.57754 4.73716 10.2326 4.89705 10.9689L5.41528 13.3551C2.06091 15.8913 0 19.3319 0 23.121C0 27.3731 2.59528 31.1863 6.70133 33.7751C6.70331 33.829 6.70749 33.8833 6.71398 33.9381L7.31533 39.0092C7.51703 40.7102 9.68397 41.3145 10.8372 39.9913L13.7729 36.6232C15.5838 37.0255 17.507 37.2421 19.5 37.2421Z"
        fill="#FDACAC" fill-rule="evenodd" />
    <path
        d="M24.5024 36.7731L25.2629 36.1238L24.8853 35.6815L24.3141 35.791L24.5024 36.7731ZM27.5061 40.2916L28.2666 39.6423L27.5061 40.2916ZM31.0442 39.305L32.0385 39.412L31.0442 39.305ZM31.594 34.1989L31.0966 33.3313L30.6543 33.5849L30.5997 34.0918L31.594 34.1989ZM9.91157 10.8222L9.64296 11.7855L9.97333 11.8776L10.2907 11.7476L9.91157 10.8222ZM6.18419 9.78281L5.91558 10.7461L6.18419 9.78281ZM4.89705 10.9689L3.91983 11.1811V11.1811L4.89705 10.9689ZM5.41528 13.3551L6.01839 14.1527L6.52812 13.7673L6.3925 13.1429L5.41528 13.3551ZM6.70133 33.7751L7.70066 33.7385L7.68133 33.2108L7.23467 32.9292L6.70133 33.7751ZM6.71398 33.9381L7.70703 33.8203V33.8203L6.71398 33.9381ZM7.31533 39.0092L8.30837 38.8915L7.31533 39.0092ZM10.8372 39.9913L10.0834 39.3343L10.8372 39.9913ZM13.7729 36.6232L13.9897 35.647L13.4095 35.5181L13.019 35.9662L13.7729 36.6232ZM24.3141 35.791C22.7802 36.085 21.1666 36.2421 19.5 36.2421V38.2421C21.292 38.2421 23.0317 38.0732 24.6906 37.7552L24.3141 35.791ZM28.2666 39.6423L25.2629 36.1238L23.7418 37.4224L26.7455 40.9409L28.2666 39.6423ZM30.05 39.1979C29.9683 39.9565 28.9106 40.3967 28.2666 39.6423L26.7455 40.9409C28.4066 42.8866 31.7491 42.0997 32.0385 39.412L30.05 39.1979ZM30.5997 34.0918L30.05 39.1979L32.0385 39.412L32.5882 34.3059L30.5997 34.0918ZM38 23.121C38 27.1463 35.4027 30.8627 31.0966 33.3313L32.0913 35.0664C36.8084 32.3622 40 28.0768 40 23.121H38ZM19.5 10C24.6973 10 29.3617 11.527 32.7021 13.9459C36.0436 16.3657 38 19.6223 38 23.121H40C40 18.821 37.5912 15.0171 33.8751 12.326C30.1578 9.63412 25.0722 8 19.5 8V10ZM10.2907 11.7476C12.9973 10.6386 16.1398 10 19.5 10V8C15.8896 8 12.4886 8.68567 9.53244 9.89686L10.2907 11.7476ZM5.91558 10.7461L9.64296 11.7855L10.1802 9.85896L6.4528 8.81956L5.91558 10.7461ZM5.87427 10.7566C5.874 10.7554 5.87451 10.7573 5.87426 10.7613C5.87402 10.7651 5.87328 10.768 5.87276 10.7695C5.87201 10.7717 5.87357 10.7662 5.88226 10.7582C5.89093 10.7502 5.89955 10.7464 5.90416 10.7452C5.90603 10.7447 5.90708 10.7446 5.9077 10.7446C5.9081 10.7446 5.91046 10.7446 5.91558 10.7461L6.4528 8.81956C5.02074 8.42022 3.59367 9.67924 3.91983 11.1811L5.87427 10.7566ZM6.3925 13.1429L5.87427 10.7566L3.91983 11.1811L4.43806 13.5673L6.3925 13.1429ZM1 23.121C1 19.7205 2.84716 16.5505 6.01839 14.1527L4.81217 12.5574C1.27465 15.2321 -1 18.9433 -1 23.121H1ZM7.23467 32.9292C3.32758 30.4658 1 26.934 1 23.121H-1C-1 27.8123 1.86299 31.9067 6.168 34.621L7.23467 32.9292ZM7.70703 33.8203C7.70373 33.7926 7.70165 33.7653 7.70066 33.7385L5.70201 33.8117C5.70497 33.8927 5.71125 33.9741 5.72094 34.0558L7.70703 33.8203ZM8.30837 38.8915L7.70703 33.8203L5.72094 34.0558L6.32229 39.127L8.30837 38.8915ZM10.0834 39.3343C9.44018 40.0722 8.39738 39.6421 8.30837 38.8915L6.32229 39.127C6.63669 41.7784 9.92776 42.5567 11.5911 40.6484L10.0834 39.3343ZM13.019 35.9662L10.0834 39.3343L11.5911 40.6484L14.5267 37.2803L13.019 35.9662ZM19.5 36.2421C17.5792 36.2421 15.7288 36.0334 13.9897 35.647L13.556 37.5994C15.4388 38.0177 17.4348 38.2421 19.5 38.2421V36.2421Z"
        fill="#9F5C5C" mask="url(#path-1-inside-1)" />
    <circle cx="6.5" cy="19.5" fill="#9F5C5C" r="1.5" />
    <path
        d="M39 23C39 22.7238 38.7761 22.5 38.5 22.5C38.2239 22.5 38 22.7238 38 23L39 23ZM42.8447 21.3908L42.5447 21.7908L42.8447 21.3908ZM40.7227 23.916C40.9524 24.0692 41.2629 24.0071 41.416 23.7773C41.5692 23.5476 41.5071 23.2371 41.2773 23.084L40.7227 23.916ZM38 23C38 24.3052 38.3465 25.4845 39.1904 26.0995C40.0775 26.746 41.2785 26.6136 42.6019 25.8195L42.0874 24.962C40.9109 25.6679 40.1895 25.5902 39.7793 25.2913C39.3258 24.9608 39 24.1948 39 23L38 23ZM42.6019 25.8195C43.2733 25.4167 43.9299 24.6475 44.1703 23.7618C44.2929 23.3101 44.3102 22.8149 44.1494 22.3236C43.9878 21.8299 43.658 21.3757 43.1447 20.9908L42.5447 21.7908C42.9163 22.0695 43.1095 22.3612 43.199 22.6347C43.2893 22.9104 43.2857 23.2035 43.2052 23.4999C43.0394 24.1106 42.5612 24.6778 42.0874 24.962L42.6019 25.8195ZM43.1447 20.9908C42.5676 20.5579 41.981 20.3812 41.4381 20.451C40.8957 20.5206 40.4658 20.8281 40.1956 21.2279C39.6671 22.0098 39.7057 23.238 40.7227 23.916L41.2773 23.084C40.7943 22.7619 40.7553 22.1856 41.0241 21.7879C41.1526 21.5978 41.3401 21.4718 41.5655 21.4428C41.7903 21.414 42.1218 21.4736 42.5447 21.7908L43.1447 20.9908Z"
        fill="#9F5C5C" />
    <mask fill="white" id="path-5-inside-2">
        <path clip-rule="evenodd"
            d="M28.334 13.5552C29.3809 12.1424 30 10.3935 30 8.5C30 3.80558 26.1944 0 21.5 0C16.8056 0 13 3.80558 13 8.5C13 10.3935 13.6191 12.1424 14.666 13.5552C16.3935 13.2129 18.8169 13 21.5 13C24.1831 13 26.6065 13.2129 28.334 13.5552Z"
            fill-rule="evenodd" />
    </mask>
    <path clip-rule="evenodd"
        d="M28.334 13.5552C29.3809 12.1424 30 10.3935 30 8.5C30 3.80558 26.1944 0 21.5 0C16.8056 0 13 3.80558 13 8.5C13 10.3935 13.6191 12.1424 14.666 13.5552C16.3935 13.2129 18.8169 13 21.5 13C24.1831 13 26.6065 13.2129 28.334 13.5552Z"
        fill="#FBDB37" fill-rule="evenodd" />
    <path
        d="M28.334 13.5552L28.1396 14.5361L28.7606 14.6592L29.1375 14.1506L28.334 13.5552ZM14.666 13.5552L13.8625 14.1506L14.2394 14.6592L14.8604 14.5361L14.666 13.5552ZM29 8.5C29 10.1719 28.4541 11.7134 27.5305 12.9599L29.1375 14.1506C30.3076 12.5713 31 10.6151 31 8.5H29ZM21.5 1C25.6421 1 29 4.35786 29 8.5H31C31 3.25329 26.7467 -1 21.5 -1V1ZM14 8.5C14 4.35786 17.3579 1 21.5 1V-1C16.2533 -1 12 3.25329 12 8.5H14ZM15.4695 12.9599C14.5459 11.7134 14 10.1719 14 8.5H12C12 10.6151 12.6924 12.5713 13.8625 14.1506L15.4695 12.9599ZM14.8604 14.5361C16.5057 14.2101 18.8604 14 21.5 14V12C18.7733 12 16.2814 12.2157 14.4716 12.5743L14.8604 14.5361ZM21.5 14C24.1396 14 26.4943 14.2101 28.1396 14.5361L28.5284 12.5743C26.7186 12.2157 24.2267 12 21.5 12V14Z"
        fill="#B9A852" mask="url(#path-5-inside-2)" />
    <path d="M14.5 13.5C17.2337 13.3047 18.7594 13 21.5 13C24.2406 13 28.5 13.5 28.5 13.5"
        stroke="#9F5C5C" stroke-linecap="round" />
</svg>
