<svg width="67" height="51" viewBox="0 0 67 51" fill="none" xmlns="http://www.w3.org/2000/svg">
<mask id="path-1-inside-1" fill="white">
<path fill-rule="evenodd" clip-rule="evenodd" d="M19.5 37.2421C21.2293 37.2421 22.906 37.0791 24.5024 36.7731L27.5061 40.2916C28.6586 41.6416 30.8587 41.0281 31.0442 39.305L31.594 34.1989C36.1055 31.6125 39 27.6115 39 23.121C39 15.3222 30.2696 9 19.5 9C16.0147 9 12.7429 9.66215 9.91157 10.8222L6.18419 9.78281C5.44809 9.57754 4.73716 10.2326 4.89705 10.9689L5.41528 13.3551C2.06091 15.8913 0 19.3319 0 23.121C0 27.3731 2.59528 31.1863 6.70133 33.7751C6.70331 33.829 6.70749 33.8833 6.71398 33.9381L7.31533 39.0092C7.51703 40.7102 9.68397 41.3145 10.8372 39.9913L13.7729 36.6232C15.5838 37.0255 17.507 37.2421 19.5 37.2421Z"/>
</mask>
<path fill-rule="evenodd" clip-rule="evenodd" d="M19.5 37.2421C21.2293 37.2421 22.906 37.0791 24.5024 36.7731L27.5061 40.2916C28.6586 41.6416 30.8587 41.0281 31.0442 39.305L31.594 34.1989C36.1055 31.6125 39 27.6115 39 23.121C39 15.3222 30.2696 9 19.5 9C16.0147 9 12.7429 9.66215 9.91157 10.8222L6.18419 9.78281C5.44809 9.57754 4.73716 10.2326 4.89705 10.9689L5.41528 13.3551C2.06091 15.8913 0 19.3319 0 23.121C0 27.3731 2.59528 31.1863 6.70133 33.7751C6.70331 33.829 6.70749 33.8833 6.71398 33.9381L7.31533 39.0092C7.51703 40.7102 9.68397 41.3145 10.8372 39.9913L13.7729 36.6232C15.5838 37.0255 17.507 37.2421 19.5 37.2421Z" fill="#FDACAC"/>
<path d="M24.5024 36.7731L25.2629 36.1238L24.8853 35.6815L24.3141 35.791L24.5024 36.7731ZM27.5061 40.2916L28.2666 39.6423L27.5061 40.2916ZM31.0442 39.305L32.0385 39.412L31.0442 39.305ZM31.594 34.1989L31.0966 33.3313L30.6543 33.5849L30.5997 34.0918L31.594 34.1989ZM9.91157 10.8222L9.64296 11.7855L9.97333 11.8776L10.2907 11.7476L9.91157 10.8222ZM6.18419 9.78281L5.91558 10.7461L6.18419 9.78281ZM4.89705 10.9689L3.91983 11.1811V11.1811L4.89705 10.9689ZM5.41528 13.3551L6.01839 14.1527L6.52812 13.7673L6.3925 13.1429L5.41528 13.3551ZM6.70133 33.7751L7.70066 33.7385L7.68133 33.2108L7.23467 32.9292L6.70133 33.7751ZM6.71398 33.9381L7.70703 33.8203V33.8203L6.71398 33.9381ZM7.31533 39.0092L8.30837 38.8915L7.31533 39.0092ZM10.8372 39.9913L10.0834 39.3343L10.8372 39.9913ZM13.7729 36.6232L13.9897 35.647L13.4095 35.5181L13.019 35.9662L13.7729 36.6232ZM24.3141 35.791C22.7802 36.085 21.1666 36.2421 19.5 36.2421V38.2421C21.292 38.2421 23.0317 38.0732 24.6906 37.7552L24.3141 35.791ZM28.2666 39.6423L25.2629 36.1238L23.7418 37.4224L26.7455 40.9409L28.2666 39.6423ZM30.05 39.1979C29.9683 39.9565 28.9106 40.3967 28.2666 39.6423L26.7455 40.9409C28.4066 42.8866 31.7491 42.0997 32.0385 39.412L30.05 39.1979ZM30.5997 34.0918L30.05 39.1979L32.0385 39.412L32.5882 34.3059L30.5997 34.0918ZM38 23.121C38 27.1463 35.4027 30.8627 31.0966 33.3313L32.0913 35.0664C36.8084 32.3622 40 28.0768 40 23.121H38ZM19.5 10C24.6973 10 29.3617 11.527 32.7021 13.9459C36.0436 16.3657 38 19.6223 38 23.121H40C40 18.821 37.5912 15.0171 33.8751 12.326C30.1578 9.63412 25.0722 8 19.5 8V10ZM10.2907 11.7476C12.9973 10.6386 16.1398 10 19.5 10V8C15.8896 8 12.4886 8.68567 9.53244 9.89686L10.2907 11.7476ZM5.91558 10.7461L9.64296 11.7855L10.1802 9.85896L6.4528 8.81956L5.91558 10.7461ZM5.87427 10.7566C5.874 10.7554 5.87451 10.7573 5.87426 10.7613C5.87402 10.7651 5.87328 10.768 5.87276 10.7695C5.87201 10.7717 5.87357 10.7662 5.88226 10.7582C5.89093 10.7502 5.89955 10.7464 5.90416 10.7452C5.90603 10.7447 5.90708 10.7446 5.9077 10.7446C5.9081 10.7446 5.91046 10.7446 5.91558 10.7461L6.4528 8.81956C5.02074 8.42022 3.59367 9.67924 3.91983 11.1811L5.87427 10.7566ZM6.3925 13.1429L5.87427 10.7566L3.91983 11.1811L4.43806 13.5673L6.3925 13.1429ZM1 23.121C1 19.7205 2.84716 16.5505 6.01839 14.1527L4.81217 12.5574C1.27465 15.2321 -1 18.9433 -1 23.121H1ZM7.23467 32.9292C3.32758 30.4658 1 26.934 1 23.121H-1C-1 27.8123 1.86299 31.9067 6.168 34.621L7.23467 32.9292ZM7.70703 33.8203C7.70373 33.7926 7.70165 33.7653 7.70066 33.7385L5.70201 33.8117C5.70497 33.8927 5.71125 33.9741 5.72094 34.0558L7.70703 33.8203ZM8.30837 38.8915L7.70703 33.8203L5.72094 34.0558L6.32229 39.127L8.30837 38.8915ZM10.0834 39.3343C9.44018 40.0722 8.39738 39.6421 8.30837 38.8915L6.32229 39.127C6.63669 41.7784 9.92776 42.5567 11.5911 40.6484L10.0834 39.3343ZM13.019 35.9662L10.0834 39.3343L11.5911 40.6484L14.5267 37.2803L13.019 35.9662ZM19.5 36.2421C17.5792 36.2421 15.7288 36.0334 13.9897 35.647L13.556 37.5994C15.4388 38.0177 17.4348 38.2421 19.5 38.2421V36.2421Z" fill="#9F5C5C" mask="url(#path-1-inside-1)"/>
<circle cx="6.5" cy="19.5" r="1.5" fill="#9F5C5C"/>
<path d="M39 23C39 22.7238 38.7761 22.5 38.5 22.5C38.2239 22.5 38 22.7238 38 23L39 23ZM42.8447 21.3908L42.5447 21.7908L42.8447 21.3908ZM40.7227 23.916C40.9524 24.0692 41.2629 24.0071 41.416 23.7773C41.5692 23.5476 41.5071 23.2371 41.2773 23.084L40.7227 23.916ZM38 23C38 24.3052 38.3465 25.4845 39.1904 26.0995C40.0775 26.746 41.2785 26.6136 42.6019 25.8195L42.0874 24.962C40.9109 25.6679 40.1895 25.5902 39.7793 25.2913C39.3258 24.9608 39 24.1948 39 23L38 23ZM42.6019 25.8195C43.2733 25.4167 43.9299 24.6475 44.1703 23.7618C44.2929 23.3101 44.3102 22.8149 44.1494 22.3236C43.9878 21.8299 43.658 21.3757 43.1447 20.9908L42.5447 21.7908C42.9163 22.0695 43.1095 22.3612 43.199 22.6347C43.2893 22.9104 43.2857 23.2035 43.2052 23.4999C43.0394 24.1106 42.5612 24.6778 42.0874 24.962L42.6019 25.8195ZM43.1447 20.9908C42.5676 20.5579 41.981 20.3812 41.4381 20.451C40.8957 20.5206 40.4658 20.8281 40.1956 21.2279C39.6671 22.0098 39.7057 23.238 40.7227 23.916L41.2773 23.084C40.7943 22.7619 40.7553 22.1856 41.0241 21.7879C41.1526 21.5978 41.3401 21.4718 41.5655 21.4428C41.7903 21.414 42.1218 21.4736 42.5447 21.7908L43.1447 20.9908Z" fill="#9F5C5C"/>
<mask id="path-5-inside-2" fill="white">
<path fill-rule="evenodd" clip-rule="evenodd" d="M28.334 13.5552C29.3809 12.1424 30 10.3935 30 8.5C30 3.80558 26.1944 0 21.5 0C16.8056 0 13 3.80558 13 8.5C13 10.3935 13.6191 12.1424 14.666 13.5552C16.3935 13.2129 18.8169 13 21.5 13C24.1831 13 26.6065 13.2129 28.334 13.5552Z"/>
</mask>
<path fill-rule="evenodd" clip-rule="evenodd" d="M28.334 13.5552C29.3809 12.1424 30 10.3935 30 8.5C30 3.80558 26.1944 0 21.5 0C16.8056 0 13 3.80558 13 8.5C13 10.3935 13.6191 12.1424 14.666 13.5552C16.3935 13.2129 18.8169 13 21.5 13C24.1831 13 26.6065 13.2129 28.334 13.5552Z" fill="#FBDB37"/>
<path d="M28.334 13.5552L28.1396 14.5361L28.7606 14.6592L29.1375 14.1506L28.334 13.5552ZM14.666 13.5552L13.8625 14.1506L14.2394 14.6592L14.8604 14.5361L14.666 13.5552ZM29 8.5C29 10.1719 28.4541 11.7134 27.5305 12.9599L29.1375 14.1506C30.3076 12.5713 31 10.6151 31 8.5H29ZM21.5 1C25.6421 1 29 4.35786 29 8.5H31C31 3.25329 26.7467 -1 21.5 -1V1ZM14 8.5C14 4.35786 17.3579 1 21.5 1V-1C16.2533 -1 12 3.25329 12 8.5H14ZM15.4695 12.9599C14.5459 11.7134 14 10.1719 14 8.5H12C12 10.6151 12.6924 12.5713 13.8625 14.1506L15.4695 12.9599ZM14.8604 14.5361C16.5057 14.2101 18.8604 14 21.5 14V12C18.7733 12 16.2814 12.2157 14.4716 12.5743L14.8604 14.5361ZM21.5 14C24.1396 14 26.4943 14.2101 28.1396 14.5361L28.5284 12.5743C26.7186 12.2157 24.2267 12 21.5 12V14Z" fill="#B9A852" mask="url(#path-5-inside-2)"/>
<path d="M14.5 13.5C17.2337 13.3047 18.7594 13 21.5 13C24.2406 13 28.5 13.5 28.5 13.5" stroke="#9F5C5C" stroke-linecap="round"/>
<path d="M2.02734 46.8457V50.0039C2.02734 50.0859 2.00781 50.1602 1.96875 50.2266C1.87891 50.3828 1.73047 50.4609 1.52344 50.4609C1.33984 50.4609 1.19922 50.3965 1.10156 50.2676C1.04688 50.1973 1.01953 50.1094 1.01953 50.0039V42.3105C1.01953 42.0332 1.16211 41.8945 1.44727 41.8945C1.68945 41.8945 1.82617 42.0254 1.85742 42.2871L1.94531 42.9492C2.17578 42.5586 2.48438 42.2617 2.87109 42.0586C3.21484 41.875 3.58008 41.7832 3.9668 41.7832C4.8418 41.7832 5.53516 42.0996 6.04688 42.7324C6.49609 43.2832 6.7207 43.9785 6.7207 44.8184C6.7207 45.5254 6.54102 46.1426 6.18164 46.6699C5.65039 47.4434 4.91602 47.8301 3.97852 47.8301C3.19336 47.8301 2.54297 47.502 2.02734 46.8457ZM1.99219 44.7246V45.1348C1.99219 45.4004 2.05859 45.6582 2.19141 45.9082C2.36328 46.2363 2.61133 46.4922 2.93555 46.6758C3.23242 46.8438 3.55469 46.9277 3.90234 46.9277C4.42578 46.9277 4.85547 46.7305 5.19141 46.3359C5.53125 45.9414 5.70117 45.4375 5.70117 44.8242C5.70117 44.1133 5.48633 43.5527 5.05664 43.1426C4.73633 42.8379 4.34961 42.6855 3.89648 42.6855C3.37305 42.6855 2.91797 42.916 2.53125 43.377C2.17188 43.8027 1.99219 44.252 1.99219 44.7246ZM10.1191 47.3906L7.6875 42.6094C7.64062 42.5195 7.61719 42.4355 7.61719 42.3574C7.61719 42.1934 7.69141 42.0605 7.83984 41.959C7.93359 41.9004 8.03125 41.8711 8.13281 41.8711C8.31641 41.8711 8.45898 41.9707 8.56055 42.1699L10.7109 46.3301L12.7617 42.1934C12.8672 41.9785 13.0254 41.8711 13.2363 41.8711C13.3574 41.8711 13.4668 41.9043 13.5645 41.9707C13.709 42.0684 13.7812 42.1992 13.7812 42.3633C13.7812 42.4609 13.7539 42.5645 13.6992 42.6738L9.82031 50.0977C9.69922 50.3359 9.53516 50.4551 9.32812 50.4551C9.23828 50.4551 9.15234 50.4336 9.07031 50.3906C8.90234 50.3008 8.81836 50.1621 8.81836 49.9746C8.81836 49.8691 8.84961 49.7598 8.91211 49.6465L10.1191 47.3906ZM19.5117 42.7207L19.6582 42.1816C19.7168 41.9668 19.8379 41.8594 20.0215 41.8594C20.291 41.8594 20.4258 41.9824 20.4258 42.2285V47.9062C20.4258 48.6992 20.166 49.3379 19.6465 49.8223C19.5254 49.9395 19.3711 50.043 19.1836 50.1328C18.7266 50.3516 18.2012 50.4609 17.6074 50.4609C16.5918 50.4609 15.8184 50.2012 15.2871 49.6816C15.1074 49.5059 15.0176 49.3457 15.0176 49.2012C15.0176 49.1035 15.0508 49.0117 15.1172 48.9258C15.2305 48.7891 15.3555 48.7207 15.4922 48.7207C15.6055 48.7207 15.7422 48.7969 15.9023 48.9492C16.3359 49.3711 16.916 49.582 17.6426 49.582C18.3262 49.582 18.8281 49.3516 19.1484 48.8906C19.3438 48.6133 19.4414 48.2812 19.4414 47.8945V46.623C19.3359 46.8457 19.1973 47.0352 19.0254 47.1914C18.6191 47.5547 18.1172 47.7363 17.5195 47.7363C17.1055 47.7363 16.707 47.6426 16.3242 47.4551C15.6523 47.127 15.1836 46.6035 14.918 45.8848C14.7891 45.5332 14.7246 45.1582 14.7246 44.7598C14.7246 44.0293 14.9414 43.3926 15.375 42.8496C15.6953 42.4512 16.0898 42.1582 16.5586 41.9707C16.8789 41.8457 17.207 41.7832 17.543 41.7832C18.0664 41.7832 18.5352 41.918 18.9492 42.1875C19.1719 42.3281 19.3594 42.5059 19.5117 42.7207ZM19.4414 44.7715V44.584C19.4414 44.2754 19.3535 43.9609 19.1777 43.6406C18.8105 42.9766 18.291 42.6445 17.6191 42.6445C17.002 42.6445 16.5117 42.9023 16.1484 43.418C15.8789 43.7969 15.7441 44.248 15.7441 44.7715C15.7441 45.3027 15.873 45.752 16.1309 46.1191C16.4863 46.623 16.9824 46.875 17.6191 46.875C18.2012 46.875 18.6719 46.6133 19.0312 46.0898C19.3047 45.6914 19.4414 45.252 19.4414 44.7715ZM27.0703 42.7207L27.2168 42.1816C27.2754 41.9668 27.3965 41.8594 27.5801 41.8594C27.8496 41.8594 27.9844 41.9824 27.9844 42.2285V47.9062C27.9844 48.6992 27.7246 49.3379 27.2051 49.8223C27.084 49.9395 26.9297 50.043 26.7422 50.1328C26.2852 50.3516 25.7598 50.4609 25.166 50.4609C24.1504 50.4609 23.377 50.2012 22.8457 49.6816C22.666 49.5059 22.5762 49.3457 22.5762 49.2012C22.5762 49.1035 22.6094 49.0117 22.6758 48.9258C22.7891 48.7891 22.9141 48.7207 23.0508 48.7207C23.1641 48.7207 23.3008 48.7969 23.4609 48.9492C23.8945 49.3711 24.4746 49.582 25.2012 49.582C25.8848 49.582 26.3867 49.3516 26.707 48.8906C26.9023 48.6133 27 48.2812 27 47.8945V46.623C26.8945 46.8457 26.7559 47.0352 26.584 47.1914C26.1777 47.5547 25.6758 47.7363 25.0781 47.7363C24.6641 47.7363 24.2656 47.6426 23.8828 47.4551C23.2109 47.127 22.7422 46.6035 22.4766 45.8848C22.3477 45.5332 22.2832 45.1582 22.2832 44.7598C22.2832 44.0293 22.5 43.3926 22.9336 42.8496C23.2539 42.4512 23.6484 42.1582 24.1172 41.9707C24.4375 41.8457 24.7656 41.7832 25.1016 41.7832C25.625 41.7832 26.0938 41.918 26.5078 42.1875C26.7305 42.3281 26.918 42.5059 27.0703 42.7207ZM27 44.7715V44.584C27 44.2754 26.9121 43.9609 26.7363 43.6406C26.3691 42.9766 25.8496 42.6445 25.1777 42.6445C24.5605 42.6445 24.0703 42.9023 23.707 43.418C23.4375 43.7969 23.3027 44.248 23.3027 44.7715C23.3027 45.3027 23.4316 45.752 23.6895 46.1191C24.0449 46.623 24.541 46.875 25.1777 46.875C25.7598 46.875 26.2305 46.6133 26.5898 46.0898C26.8633 45.6914 27 45.252 27 44.7715ZM31.834 47.3906L29.4023 42.6094C29.3555 42.5195 29.332 42.4355 29.332 42.3574C29.332 42.1934 29.4062 42.0605 29.5547 41.959C29.6484 41.9004 29.7461 41.8711 29.8477 41.8711C30.0312 41.8711 30.1738 41.9707 30.2754 42.1699L32.4258 46.3301L34.4766 42.1934C34.582 41.9785 34.7402 41.8711 34.9512 41.8711C35.0723 41.8711 35.1816 41.9043 35.2793 41.9707C35.4238 42.0684 35.4961 42.1992 35.4961 42.3633C35.4961 42.4609 35.4688 42.5645 35.4141 42.6738L31.5352 50.0977C31.4141 50.3359 31.25 50.4551 31.043 50.4551C30.9531 50.4551 30.8672 50.4336 30.7852 50.3906C30.6172 50.3008 30.5332 50.1621 30.5332 49.9746C30.5332 49.8691 30.5645 49.7598 30.627 49.6465L31.834 47.3906Z" fill="#154153"/>
<path d="M38.3379 43.9102L38.2676 44.3906C38.2129 44.7656 37.998 44.9531 37.623 44.9531C37.2051 44.9531 36.9961 44.7402 36.9961 44.3145V36.5742C36.9961 36.418 37.0449 36.2832 37.1426 36.1699C37.2871 36.0098 37.4883 35.9297 37.7461 35.9297C38.043 35.9297 38.2598 36.0312 38.3965 36.2344C38.4629 36.332 38.4961 36.4453 38.4961 36.5742V39.2637C38.9336 38.7207 39.5488 38.4492 40.3418 38.4492C41.2676 38.4492 42.0117 38.8203 42.5742 39.5625C43.0234 40.1602 43.248 40.877 43.248 41.7129C43.248 42.6152 43.0176 43.3633 42.5566 43.957C42.0137 44.6523 41.2832 45 40.3652 45C39.7793 45 39.2617 44.8184 38.8125 44.4551C38.6211 44.3027 38.4629 44.1211 38.3379 43.9102ZM38.4844 41.3496V41.8184C38.4844 42.4707 38.7246 42.9922 39.2051 43.3828C39.4824 43.6055 39.7832 43.7168 40.1074 43.7168C40.5723 43.7168 40.9492 43.5332 41.2383 43.166C41.5312 42.7988 41.6777 42.3125 41.6777 41.707C41.6777 41.0391 41.4883 40.5176 41.1094 40.1426C40.8242 39.8613 40.4805 39.7207 40.0781 39.7207C39.7305 39.7207 39.4102 39.8359 39.1172 40.0664C38.6953 40.4023 38.4844 40.8301 38.4844 41.3496ZM49.1133 39.3105L49.1484 38.9297C49.1758 38.6094 49.3848 38.4492 49.7754 38.4492C50.0879 38.4492 50.3027 38.5684 50.4199 38.8066C50.459 38.8887 50.4785 38.9805 50.4785 39.082V44.3145C50.4785 44.4473 50.4492 44.5645 50.3906 44.666C50.2734 44.8574 50.0781 44.9531 49.8047 44.9531C49.4258 44.9531 49.207 44.7559 49.1484 44.3613L49.084 43.957C48.6973 44.6523 48.0352 45 47.0977 45C46.0977 45 45.3281 44.5977 44.7891 43.793C44.4062 43.2227 44.2148 42.5312 44.2148 41.7188C44.2148 40.9492 44.4102 40.2793 44.8008 39.709C45.1211 39.2363 45.5352 38.8926 46.043 38.6777C46.3945 38.5254 46.7637 38.4492 47.1504 38.4492C48.0176 38.4492 48.6719 38.7363 49.1133 39.3105ZM48.9902 41.8184V41.3496C48.9902 40.916 48.8301 40.5371 48.5098 40.2129C48.1855 39.8848 47.8105 39.7207 47.3848 39.7207C46.8926 39.7207 46.4961 39.9258 46.1953 40.3359C45.9297 40.6992 45.7969 41.1582 45.7969 41.7129C45.7969 42.1895 45.8906 42.5977 46.0781 42.9375C46.3672 43.457 46.7988 43.7168 47.373 43.7168C47.7285 43.7168 48.0527 43.582 48.3457 43.3125C48.7754 42.918 48.9902 42.4199 48.9902 41.8184ZM53.8184 39.5391C54.041 39.2383 54.3047 39 54.6094 38.8242C55.0352 38.5742 55.4844 38.4492 55.957 38.4492C56.6641 38.4492 57.2285 38.6875 57.6504 39.1641C58.0254 39.582 58.2129 40.207 58.2129 41.0391V44.3027C58.2129 44.459 58.166 44.5918 58.0723 44.7012C57.9238 44.8691 57.7148 44.9531 57.4453 44.9531C57.1406 44.9531 56.9199 44.8477 56.7832 44.6367C56.7207 44.5391 56.6895 44.4277 56.6895 44.3027V41.209C56.6895 40.8652 56.6348 40.5762 56.5254 40.3418C56.3496 39.9668 56.0625 39.7793 55.6641 39.7793C55.2422 39.7793 54.8398 39.998 54.457 40.4355C54.1523 40.7793 54 41.1328 54 41.4961V44.3027C54 44.4707 53.9453 44.6113 53.8359 44.7246C53.6875 44.877 53.4883 44.9531 53.2383 44.9531C52.9297 44.9531 52.707 44.8477 52.5703 44.6367C52.5078 44.543 52.4766 44.4316 52.4766 44.3027V39.1172C52.4766 38.9609 52.5137 38.8301 52.5879 38.7246C52.6973 38.5645 52.8652 38.4844 53.0918 38.4844C53.4512 38.4844 53.666 38.6797 53.7363 39.0703L53.8184 39.5391ZM61.7109 42.6621V44.3027C61.7109 44.4902 61.6465 44.6406 61.5176 44.7539C61.3652 44.8867 61.1777 44.9531 60.9551 44.9531C60.627 44.9531 60.4004 44.834 60.2754 44.5957C60.2324 44.5098 60.2109 44.4121 60.2109 44.3027V36.5625C60.2109 36.4062 60.2598 36.2754 60.3574 36.1699C60.502 36.0098 60.7012 35.9297 60.9551 35.9297C61.2715 35.9297 61.4961 36.0391 61.6289 36.2578C61.6836 36.3477 61.7109 36.4492 61.7109 36.5625V40.9336L64.3125 38.7246C64.4883 38.5762 64.6699 38.502 64.8574 38.502C65.0332 38.502 65.1895 38.5684 65.3262 38.7012C65.4941 38.8691 65.5781 39.0547 65.5781 39.2578C65.5781 39.4609 65.4922 39.6309 65.3203 39.7676L63.4746 41.2441L65.625 43.6055C65.7695 43.7695 65.8418 43.9551 65.8418 44.1621C65.8418 44.4082 65.75 44.5996 65.5664 44.7363C65.3906 44.8691 65.2031 44.9355 65.0039 44.9355C64.7773 44.9355 64.584 44.8379 64.4238 44.6426L62.3848 42.1172L61.7109 42.6621Z" fill="#FBDB37"/>
</svg>
