<svg width="67" height="65" viewBox="0 0 67 65" fill="none" xmlns="http://www.w3.org/2000/svg">
<mask id="path-1-inside-1" fill="white">
<path fill-rule="evenodd" clip-rule="evenodd" d="M19.5 37.2421C21.2293 37.2421 22.906 37.0791 24.5024 36.7731L27.5061 40.2916C28.6586 41.6416 30.8587 41.0281 31.0442 39.305L31.594 34.1989C36.1055 31.6125 39 27.6115 39 23.121C39 15.3222 30.2696 9 19.5 9C16.0147 9 12.7429 9.66215 9.91157 10.8222L6.18419 9.78281C5.44809 9.57754 4.73716 10.2326 4.89705 10.9689L5.41528 13.3551C2.06091 15.8913 0 19.3319 0 23.121C0 27.3731 2.59528 31.1863 6.70133 33.7751C6.70331 33.829 6.70749 33.8833 6.71398 33.9381L7.31533 39.0092C7.51703 40.7102 9.68397 41.3145 10.8372 39.9913L13.7729 36.6232C15.5838 37.0255 17.507 37.2421 19.5 37.2421Z"/>
</mask>
<path fill-rule="evenodd" clip-rule="evenodd" d="M19.5 37.2421C21.2293 37.2421 22.906 37.0791 24.5024 36.7731L27.5061 40.2916C28.6586 41.6416 30.8587 41.0281 31.0442 39.305L31.594 34.1989C36.1055 31.6125 39 27.6115 39 23.121C39 15.3222 30.2696 9 19.5 9C16.0147 9 12.7429 9.66215 9.91157 10.8222L6.18419 9.78281C5.44809 9.57754 4.73716 10.2326 4.89705 10.9689L5.41528 13.3551C2.06091 15.8913 0 19.3319 0 23.121C0 27.3731 2.59528 31.1863 6.70133 33.7751C6.70331 33.829 6.70749 33.8833 6.71398 33.9381L7.31533 39.0092C7.51703 40.7102 9.68397 41.3145 10.8372 39.9913L13.7729 36.6232C15.5838 37.0255 17.507 37.2421 19.5 37.2421Z" fill="#FDACAC"/>
<path d="M24.5024 36.7731L25.2629 36.1238L24.8853 35.6815L24.3141 35.791L24.5024 36.7731ZM27.5061 40.2916L28.2666 39.6423L27.5061 40.2916ZM31.0442 39.305L32.0385 39.412L31.0442 39.305ZM31.594 34.1989L31.0966 33.3313L30.6543 33.5849L30.5997 34.0918L31.594 34.1989ZM9.91157 10.8222L9.64296 11.7855L9.97333 11.8776L10.2907 11.7476L9.91157 10.8222ZM6.18419 9.78281L5.91558 10.7461L6.18419 9.78281ZM4.89705 10.9689L3.91983 11.1811V11.1811L4.89705 10.9689ZM5.41528 13.3551L6.01839 14.1527L6.52812 13.7673L6.3925 13.1429L5.41528 13.3551ZM6.70133 33.7751L7.70066 33.7385L7.68133 33.2108L7.23467 32.9292L6.70133 33.7751ZM6.71398 33.9381L7.70703 33.8203V33.8203L6.71398 33.9381ZM7.31533 39.0092L8.30837 38.8915L7.31533 39.0092ZM10.8372 39.9913L10.0834 39.3343L10.8372 39.9913ZM13.7729 36.6232L13.9897 35.647L13.4095 35.5181L13.019 35.9662L13.7729 36.6232ZM24.3141 35.791C22.7802 36.085 21.1666 36.2421 19.5 36.2421V38.2421C21.292 38.2421 23.0317 38.0732 24.6906 37.7552L24.3141 35.791ZM28.2666 39.6423L25.2629 36.1238L23.7418 37.4224L26.7455 40.9409L28.2666 39.6423ZM30.05 39.1979C29.9683 39.9565 28.9106 40.3967 28.2666 39.6423L26.7455 40.9409C28.4066 42.8866 31.7491 42.0997 32.0385 39.412L30.05 39.1979ZM30.5997 34.0918L30.05 39.1979L32.0385 39.412L32.5882 34.3059L30.5997 34.0918ZM38 23.121C38 27.1463 35.4027 30.8627 31.0966 33.3313L32.0913 35.0664C36.8084 32.3622 40 28.0768 40 23.121H38ZM19.5 10C24.6973 10 29.3617 11.527 32.7021 13.9459C36.0436 16.3657 38 19.6223 38 23.121H40C40 18.821 37.5912 15.0171 33.8751 12.326C30.1578 9.63412 25.0722 8 19.5 8V10ZM10.2907 11.7476C12.9973 10.6386 16.1398 10 19.5 10V8C15.8896 8 12.4886 8.68567 9.53244 9.89686L10.2907 11.7476ZM5.91558 10.7461L9.64296 11.7855L10.1802 9.85896L6.4528 8.81956L5.91558 10.7461ZM5.87427 10.7566C5.874 10.7554 5.87451 10.7573 5.87426 10.7613C5.87402 10.7651 5.87328 10.768 5.87276 10.7695C5.87201 10.7717 5.87357 10.7662 5.88226 10.7582C5.89093 10.7502 5.89955 10.7464 5.90416 10.7452C5.90603 10.7447 5.90708 10.7446 5.9077 10.7446C5.9081 10.7446 5.91046 10.7446 5.91558 10.7461L6.4528 8.81956C5.02074 8.42022 3.59367 9.67924 3.91983 11.1811L5.87427 10.7566ZM6.3925 13.1429L5.87427 10.7566L3.91983 11.1811L4.43806 13.5673L6.3925 13.1429ZM1 23.121C1 19.7205 2.84716 16.5505 6.01839 14.1527L4.81217 12.5574C1.27465 15.2321 -1 18.9433 -1 23.121H1ZM7.23467 32.9292C3.32758 30.4658 1 26.934 1 23.121H-1C-1 27.8123 1.86299 31.9067 6.168 34.621L7.23467 32.9292ZM7.70703 33.8203C7.70373 33.7926 7.70165 33.7653 7.70066 33.7385L5.70201 33.8117C5.70497 33.8927 5.71125 33.9741 5.72094 34.0558L7.70703 33.8203ZM8.30837 38.8915L7.70703 33.8203L5.72094 34.0558L6.32229 39.127L8.30837 38.8915ZM10.0834 39.3343C9.44018 40.0722 8.39738 39.6421 8.30837 38.8915L6.32229 39.127C6.63669 41.7784 9.92776 42.5567 11.5911 40.6484L10.0834 39.3343ZM13.019 35.9662L10.0834 39.3343L11.5911 40.6484L14.5267 37.2803L13.019 35.9662ZM19.5 36.2421C17.5792 36.2421 15.7288 36.0334 13.9897 35.647L13.556 37.5994C15.4388 38.0177 17.4348 38.2421 19.5 38.2421V36.2421Z" fill="#9F5C5C" mask="url(#path-1-inside-1)"/>
<circle cx="6.5" cy="19.5" r="1.5" fill="#9F5C5C"/>
<path d="M39 23C39 22.7238 38.7761 22.5 38.5 22.5C38.2239 22.5 38 22.7238 38 23L39 23ZM42.8447 21.3908L42.5447 21.7908L42.8447 21.3908ZM40.7227 23.916C40.9524 24.0692 41.2629 24.0071 41.416 23.7773C41.5692 23.5476 41.5071 23.2371 41.2773 23.084L40.7227 23.916ZM38 23C38 24.3052 38.3465 25.4845 39.1904 26.0995C40.0775 26.746 41.2785 26.6136 42.6019 25.8195L42.0874 24.962C40.9109 25.6679 40.1895 25.5902 39.7793 25.2913C39.3258 24.9608 39 24.1948 39 23L38 23ZM42.6019 25.8195C43.2733 25.4167 43.9299 24.6475 44.1703 23.7618C44.2929 23.3101 44.3102 22.8149 44.1494 22.3236C43.9878 21.8299 43.658 21.3757 43.1447 20.9908L42.5447 21.7908C42.9163 22.0695 43.1095 22.3612 43.199 22.6347C43.2893 22.9104 43.2857 23.2035 43.2052 23.4999C43.0394 24.1106 42.5612 24.6778 42.0874 24.962L42.6019 25.8195ZM43.1447 20.9908C42.5676 20.5579 41.981 20.3812 41.4381 20.451C40.8957 20.5206 40.4658 20.8281 40.1956 21.2279C39.6671 22.0098 39.7057 23.238 40.7227 23.916L41.2773 23.084C40.7943 22.7619 40.7553 22.1856 41.0241 21.7879C41.1526 21.5978 41.3401 21.4718 41.5655 21.4428C41.7903 21.414 42.1218 21.4736 42.5447 21.7908L43.1447 20.9908Z" fill="#9F5C5C"/>
<mask id="path-5-inside-2" fill="white">
<path fill-rule="evenodd" clip-rule="evenodd" d="M28.334 13.5552C29.3809 12.1424 30 10.3935 30 8.5C30 3.80558 26.1944 0 21.5 0C16.8056 0 13 3.80558 13 8.5C13 10.3935 13.6191 12.1424 14.666 13.5552C16.3935 13.2129 18.8169 13 21.5 13C24.1831 13 26.6065 13.2129 28.334 13.5552Z"/>
</mask>
<path fill-rule="evenodd" clip-rule="evenodd" d="M28.334 13.5552C29.3809 12.1424 30 10.3935 30 8.5C30 3.80558 26.1944 0 21.5 0C16.8056 0 13 3.80558 13 8.5C13 10.3935 13.6191 12.1424 14.666 13.5552C16.3935 13.2129 18.8169 13 21.5 13C24.1831 13 26.6065 13.2129 28.334 13.5552Z" fill="#FBDB37"/>
<path d="M28.334 13.5552L28.1396 14.5361L28.7606 14.6592L29.1375 14.1506L28.334 13.5552ZM14.666 13.5552L13.8625 14.1506L14.2394 14.6592L14.8604 14.5361L14.666 13.5552ZM29 8.5C29 10.1719 28.4541 11.7134 27.5305 12.9599L29.1375 14.1506C30.3076 12.5713 31 10.6151 31 8.5H29ZM21.5 1C25.6421 1 29 4.35786 29 8.5H31C31 3.25329 26.7467 -1 21.5 -1V1ZM14 8.5C14 4.35786 17.3579 1 21.5 1V-1C16.2533 -1 12 3.25329 12 8.5H14ZM15.4695 12.9599C14.5459 11.7134 14 10.1719 14 8.5H12C12 10.6151 12.6924 12.5713 13.8625 14.1506L15.4695 12.9599ZM14.8604 14.5361C16.5057 14.2101 18.8604 14 21.5 14V12C18.7733 12 16.2814 12.2157 14.4716 12.5743L14.8604 14.5361ZM21.5 14C24.1396 14 26.4943 14.2101 28.1396 14.5361L28.5284 12.5743C26.7186 12.2157 24.2267 12 21.5 12V14Z" fill="#B9A852" mask="url(#path-5-inside-2)"/>
<path d="M14.5 13.5C17.2337 13.3047 18.7594 13 21.5 13C24.2406 13 28.5 13.5 28.5 13.5" stroke="#9F5C5C" stroke-linecap="round"/>
<path d="M38.3379 43.9102L38.2676 44.3906C38.2129 44.7656 37.998 44.9531 37.623 44.9531C37.2051 44.9531 36.9961 44.7402 36.9961 44.3145V36.5742C36.9961 36.418 37.0449 36.2832 37.1426 36.1699C37.2871 36.0098 37.4883 35.9297 37.7461 35.9297C38.043 35.9297 38.2598 36.0312 38.3965 36.2344C38.4629 36.332 38.4961 36.4453 38.4961 36.5742V39.2637C38.9336 38.7207 39.5488 38.4492 40.3418 38.4492C41.2676 38.4492 42.0117 38.8203 42.5742 39.5625C43.0234 40.1602 43.248 40.877 43.248 41.7129C43.248 42.6152 43.0176 43.3633 42.5566 43.957C42.0137 44.6523 41.2832 45 40.3652 45C39.7793 45 39.2617 44.8184 38.8125 44.4551C38.6211 44.3027 38.4629 44.1211 38.3379 43.9102ZM38.4844 41.3496V41.8184C38.4844 42.4707 38.7246 42.9922 39.2051 43.3828C39.4824 43.6055 39.7832 43.7168 40.1074 43.7168C40.5723 43.7168 40.9492 43.5332 41.2383 43.166C41.5312 42.7988 41.6777 42.3125 41.6777 41.707C41.6777 41.0391 41.4883 40.5176 41.1094 40.1426C40.8242 39.8613 40.4805 39.7207 40.0781 39.7207C39.7305 39.7207 39.4102 39.8359 39.1172 40.0664C38.6953 40.4023 38.4844 40.8301 38.4844 41.3496ZM49.1133 39.3105L49.1484 38.9297C49.1758 38.6094 49.3848 38.4492 49.7754 38.4492C50.0879 38.4492 50.3027 38.5684 50.4199 38.8066C50.459 38.8887 50.4785 38.9805 50.4785 39.082V44.3145C50.4785 44.4473 50.4492 44.5645 50.3906 44.666C50.2734 44.8574 50.0781 44.9531 49.8047 44.9531C49.4258 44.9531 49.207 44.7559 49.1484 44.3613L49.084 43.957C48.6973 44.6523 48.0352 45 47.0977 45C46.0977 45 45.3281 44.5977 44.7891 43.793C44.4062 43.2227 44.2148 42.5312 44.2148 41.7188C44.2148 40.9492 44.4102 40.2793 44.8008 39.709C45.1211 39.2363 45.5352 38.8926 46.043 38.6777C46.3945 38.5254 46.7637 38.4492 47.1504 38.4492C48.0176 38.4492 48.6719 38.7363 49.1133 39.3105ZM48.9902 41.8184V41.3496C48.9902 40.916 48.8301 40.5371 48.5098 40.2129C48.1855 39.8848 47.8105 39.7207 47.3848 39.7207C46.8926 39.7207 46.4961 39.9258 46.1953 40.3359C45.9297 40.6992 45.7969 41.1582 45.7969 41.7129C45.7969 42.1895 45.8906 42.5977 46.0781 42.9375C46.3672 43.457 46.7988 43.7168 47.373 43.7168C47.7285 43.7168 48.0527 43.582 48.3457 43.3125C48.7754 42.918 48.9902 42.4199 48.9902 41.8184ZM53.8184 39.5391C54.041 39.2383 54.3047 39 54.6094 38.8242C55.0352 38.5742 55.4844 38.4492 55.957 38.4492C56.6641 38.4492 57.2285 38.6875 57.6504 39.1641C58.0254 39.582 58.2129 40.207 58.2129 41.0391V44.3027C58.2129 44.459 58.166 44.5918 58.0723 44.7012C57.9238 44.8691 57.7148 44.9531 57.4453 44.9531C57.1406 44.9531 56.9199 44.8477 56.7832 44.6367C56.7207 44.5391 56.6895 44.4277 56.6895 44.3027V41.209C56.6895 40.8652 56.6348 40.5762 56.5254 40.3418C56.3496 39.9668 56.0625 39.7793 55.6641 39.7793C55.2422 39.7793 54.8398 39.998 54.457 40.4355C54.1523 40.7793 54 41.1328 54 41.4961V44.3027C54 44.4707 53.9453 44.6113 53.8359 44.7246C53.6875 44.877 53.4883 44.9531 53.2383 44.9531C52.9297 44.9531 52.707 44.8477 52.5703 44.6367C52.5078 44.543 52.4766 44.4316 52.4766 44.3027V39.1172C52.4766 38.9609 52.5137 38.8301 52.5879 38.7246C52.6973 38.5645 52.8652 38.4844 53.0918 38.4844C53.4512 38.4844 53.666 38.6797 53.7363 39.0703L53.8184 39.5391ZM61.7109 42.6621V44.3027C61.7109 44.4902 61.6465 44.6406 61.5176 44.7539C61.3652 44.8867 61.1777 44.9531 60.9551 44.9531C60.627 44.9531 60.4004 44.834 60.2754 44.5957C60.2324 44.5098 60.2109 44.4121 60.2109 44.3027V36.5625C60.2109 36.4062 60.2598 36.2754 60.3574 36.1699C60.502 36.0098 60.7012 35.9297 60.9551 35.9297C61.2715 35.9297 61.4961 36.0391 61.6289 36.2578C61.6836 36.3477 61.7109 36.4492 61.7109 36.5625V40.9336L64.3125 38.7246C64.4883 38.5762 64.6699 38.502 64.8574 38.502C65.0332 38.502 65.1895 38.5684 65.3262 38.7012C65.4941 38.8691 65.5781 39.0547 65.5781 39.2578C65.5781 39.4609 65.4922 39.6309 65.3203 39.7676L63.4746 41.2441L65.625 43.6055C65.7695 43.7695 65.8418 43.9551 65.8418 44.1621C65.8418 44.4082 65.75 44.5996 65.5664 44.7363C65.3906 44.8691 65.2031 44.9355 65.0039 44.9355C64.7773 44.9355 64.584 44.8379 64.4238 44.6426L62.3848 42.1172L61.7109 42.6621Z" fill="#FBDB37"/>
</svg>
