<svg width="67" height="55" viewBox="0 0 67 55" fill="none" xmlns="http://www.w3.org/2000/svg">
<mask id="path-1-inside-1" fill="white">
<path fill-rule="evenodd" clip-rule="evenodd" d="M33.5 37.2421C35.2293 37.2421 36.906 37.0791 38.5024 36.7731L41.5061 40.2916C42.6586 41.6416 44.8587 41.0281 45.0442 39.305L45.594 34.1989C50.1055 31.6125 53 27.6115 53 23.121C53 15.3222 44.2696 9 33.5 9C30.0147 9 26.7429 9.66215 23.9116 10.8222L20.1842 9.78281C19.4481 9.57754 18.7372 10.2326 18.8971 10.9689L19.4153 13.3551C16.0609 15.8913 14 19.3319 14 23.121C14 27.3731 16.5953 31.1863 20.7013 33.7751C20.7033 33.829 20.7075 33.8833 20.714 33.9381L21.3153 39.0092C21.517 40.7102 23.684 41.3145 24.8372 39.9913L27.7729 36.6232C29.5838 37.0255 31.507 37.2421 33.5 37.2421Z"/>
</mask>
<path fill-rule="evenodd" clip-rule="evenodd" d="M33.5 37.2421C35.2293 37.2421 36.906 37.0791 38.5024 36.7731L41.5061 40.2916C42.6586 41.6416 44.8587 41.0281 45.0442 39.305L45.594 34.1989C50.1055 31.6125 53 27.6115 53 23.121C53 15.3222 44.2696 9 33.5 9C30.0147 9 26.7429 9.66215 23.9116 10.8222L20.1842 9.78281C19.4481 9.57754 18.7372 10.2326 18.8971 10.9689L19.4153 13.3551C16.0609 15.8913 14 19.3319 14 23.121C14 27.3731 16.5953 31.1863 20.7013 33.7751C20.7033 33.829 20.7075 33.8833 20.714 33.9381L21.3153 39.0092C21.517 40.7102 23.684 41.3145 24.8372 39.9913L27.7729 36.6232C29.5838 37.0255 31.507 37.2421 33.5 37.2421Z" fill="#FDACAC"/>
<path d="M38.5024 36.7731L39.2629 36.1238L38.8853 35.6815L38.3141 35.791L38.5024 36.7731ZM41.5061 40.2916L42.2666 39.6423L41.5061 40.2916ZM45.0442 39.305L46.0385 39.412L45.0442 39.305ZM45.594 34.1989L45.0966 33.3313L44.6543 33.5849L44.5997 34.0918L45.594 34.1989ZM23.9116 10.8222L23.643 11.7855L23.9733 11.8776L24.2907 11.7476L23.9116 10.8222ZM20.1842 9.78281L19.9156 10.7461L20.1842 9.78281ZM18.8971 10.9689L17.9198 11.1811V11.1811L18.8971 10.9689ZM19.4153 13.3551L20.0184 14.1527L20.5281 13.7673L20.3925 13.1429L19.4153 13.3551ZM20.7013 33.7751L21.7007 33.7385L21.6813 33.2108L21.2347 32.9292L20.7013 33.7751ZM20.714 33.9381L21.707 33.8203V33.8203L20.714 33.9381ZM21.3153 39.0092L22.3084 38.8915L21.3153 39.0092ZM24.8372 39.9913L24.0834 39.3343L24.8372 39.9913ZM27.7729 36.6232L27.9897 35.647L27.4095 35.5181L27.019 35.9662L27.7729 36.6232ZM38.3141 35.791C36.7802 36.085 35.1666 36.2421 33.5 36.2421V38.2421C35.292 38.2421 37.0317 38.0732 38.6906 37.7552L38.3141 35.791ZM42.2666 39.6423L39.2629 36.1238L37.7418 37.4224L40.7455 40.9409L42.2666 39.6423ZM44.05 39.1979C43.9683 39.9565 42.9106 40.3967 42.2666 39.6423L40.7455 40.9409C42.4066 42.8866 45.7491 42.0997 46.0385 39.412L44.05 39.1979ZM44.5997 34.0918L44.05 39.1979L46.0385 39.412L46.5882 34.3059L44.5997 34.0918ZM52 23.121C52 27.1463 49.4027 30.8627 45.0966 33.3313L46.0913 35.0664C50.8084 32.3622 54 28.0768 54 23.121H52ZM33.5 10C38.6973 10 43.3617 11.527 46.7021 13.9459C50.0436 16.3657 52 19.6223 52 23.121H54C54 18.821 51.5912 15.0171 47.8751 12.326C44.1578 9.63412 39.0722 8 33.5 8V10ZM24.2907 11.7476C26.9973 10.6386 30.1398 10 33.5 10V8C29.8896 8 26.4886 8.68567 23.5324 9.89686L24.2907 11.7476ZM19.9156 10.7461L23.643 11.7855L24.1802 9.85896L20.4528 8.81956L19.9156 10.7461ZM19.8743 10.7566C19.874 10.7554 19.8745 10.7573 19.8743 10.7613C19.874 10.7651 19.8733 10.768 19.8728 10.7695C19.872 10.7717 19.8736 10.7662 19.8823 10.7582C19.8909 10.7502 19.8995 10.7464 19.9042 10.7452C19.906 10.7447 19.9071 10.7446 19.9077 10.7446C19.9081 10.7446 19.9105 10.7446 19.9156 10.7461L20.4528 8.81956C19.0207 8.42022 17.5937 9.67924 17.9198 11.1811L19.8743 10.7566ZM20.3925 13.1429L19.8743 10.7566L17.9198 11.1811L18.4381 13.5673L20.3925 13.1429ZM15 23.121C15 19.7205 16.8472 16.5505 20.0184 14.1527L18.8122 12.5574C15.2747 15.2321 13 18.9433 13 23.121H15ZM21.2347 32.9292C17.3276 30.4658 15 26.934 15 23.121H13C13 27.8123 15.863 31.9067 20.168 34.621L21.2347 32.9292ZM21.707 33.8203C21.7037 33.7926 21.7016 33.7653 21.7007 33.7385L19.702 33.8117C19.705 33.8927 19.7113 33.9741 19.7209 34.0558L21.707 33.8203ZM22.3084 38.8915L21.707 33.8203L19.7209 34.0558L20.3223 39.127L22.3084 38.8915ZM24.0834 39.3343C23.4402 40.0722 22.3974 39.6421 22.3084 38.8915L20.3223 39.127C20.6367 41.7784 23.9278 42.5567 25.5911 40.6484L24.0834 39.3343ZM27.019 35.9662L24.0834 39.3343L25.5911 40.6484L28.5267 37.2803L27.019 35.9662ZM33.5 36.2421C31.5792 36.2421 29.7288 36.0334 27.9897 35.647L27.556 37.5994C29.4388 38.0177 31.4348 38.2421 33.5 38.2421V36.2421Z" fill="#9F5C5C" mask="url(#path-1-inside-1)"/>
<circle cx="20.5" cy="19.5" r="1.5" fill="#9F5C5C"/>
<path d="M53 23C53 22.7238 52.7761 22.5 52.5 22.5C52.2239 22.5 52 22.7238 52 23L53 23ZM56.8447 21.3908L56.5447 21.7908L56.8447 21.3908ZM54.7227 23.916C54.9524 24.0692 55.2629 24.0071 55.416 23.7773C55.5692 23.5476 55.5071 23.2371 55.2773 23.084L54.7227 23.916ZM52 23C52 24.3052 52.3465 25.4845 53.1904 26.0995C54.0775 26.746 55.2785 26.6136 56.6019 25.8195L56.0874 24.962C54.9109 25.6679 54.1895 25.5902 53.7793 25.2913C53.3258 24.9608 53 24.1948 53 23L52 23ZM56.6019 25.8195C57.2733 25.4167 57.9299 24.6475 58.1703 23.7618C58.2929 23.3101 58.3102 22.8149 58.1494 22.3236C57.9878 21.8299 57.658 21.3757 57.1447 20.9908L56.5447 21.7908C56.9163 22.0695 57.1095 22.3612 57.199 22.6347C57.2893 22.9104 57.2857 23.2035 57.2052 23.4999C57.0394 24.1106 56.5612 24.6778 56.0874 24.962L56.6019 25.8195ZM57.1447 20.9908C56.5676 20.5579 55.981 20.3812 55.4381 20.451C54.8957 20.5206 54.4658 20.8281 54.1956 21.2279C53.6671 22.0098 53.7057 23.238 54.7227 23.916L55.2773 23.084C54.7943 22.7619 54.7553 22.1856 55.0241 21.7879C55.1526 21.5978 55.3401 21.4718 55.5655 21.4428C55.7903 21.414 56.1218 21.4736 56.5447 21.7908L57.1447 20.9908Z" fill="#9F5C5C"/>
<mask id="path-5-inside-2" fill="white">
<path fill-rule="evenodd" clip-rule="evenodd" d="M42.334 13.5552C43.3809 12.1424 44 10.3935 44 8.5C44 3.80558 40.1944 0 35.5 0C30.8056 0 27 3.80558 27 8.5C27 10.3935 27.6191 12.1424 28.666 13.5552C30.3935 13.2129 32.8169 13 35.5 13C38.1831 13 40.6065 13.2129 42.334 13.5552Z"/>
</mask>
<path fill-rule="evenodd" clip-rule="evenodd" d="M42.334 13.5552C43.3809 12.1424 44 10.3935 44 8.5C44 3.80558 40.1944 0 35.5 0C30.8056 0 27 3.80558 27 8.5C27 10.3935 27.6191 12.1424 28.666 13.5552C30.3935 13.2129 32.8169 13 35.5 13C38.1831 13 40.6065 13.2129 42.334 13.5552Z" fill="#FBDB37"/>
<path d="M42.334 13.5552L42.1396 14.5361L42.7606 14.6592L43.1375 14.1506L42.334 13.5552ZM28.666 13.5552L27.8625 14.1506L28.2394 14.6592L28.8604 14.5361L28.666 13.5552ZM43 8.5C43 10.1719 42.4541 11.7134 41.5305 12.9599L43.1375 14.1506C44.3076 12.5713 45 10.6151 45 8.5H43ZM35.5 1C39.6421 1 43 4.35786 43 8.5H45C45 3.25329 40.7467 -1 35.5 -1V1ZM28 8.5C28 4.35786 31.3579 1 35.5 1V-1C30.2533 -1 26 3.25329 26 8.5H28ZM29.4695 12.9599C28.5459 11.7134 28 10.1719 28 8.5H26C26 10.6151 26.6924 12.5713 27.8625 14.1506L29.4695 12.9599ZM28.8604 14.5361C30.5057 14.2101 32.8604 14 35.5 14V12C32.7733 12 30.2814 12.2157 28.4716 12.5743L28.8604 14.5361ZM35.5 14C38.1396 14 40.4943 14.2101 42.1396 14.5361L42.5284 12.5743C40.7186 12.2157 38.2267 12 35.5 12V14Z" fill="#B9A852" mask="url(#path-5-inside-2)"/>
<path d="M28.5 13.5C31.2337 13.3047 32.7594 13 35.5 13C38.2406 13 42.5 13.5 42.5 13.5" stroke="#9F5C5C" stroke-linecap="round"/>
<path d="M2.02734 50.8457V54.0039C2.02734 54.0859 2.00781 54.1602 1.96875 54.2266C1.87891 54.3828 1.73047 54.4609 1.52344 54.4609C1.33984 54.4609 1.19922 54.3965 1.10156 54.2676C1.04688 54.1973 1.01953 54.1094 1.01953 54.0039V46.3105C1.01953 46.0332 1.16211 45.8945 1.44727 45.8945C1.68945 45.8945 1.82617 46.0254 1.85742 46.2871L1.94531 46.9492C2.17578 46.5586 2.48438 46.2617 2.87109 46.0586C3.21484 45.875 3.58008 45.7832 3.9668 45.7832C4.8418 45.7832 5.53516 46.0996 6.04688 46.7324C6.49609 47.2832 6.7207 47.9785 6.7207 48.8184C6.7207 49.5254 6.54102 50.1426 6.18164 50.6699C5.65039 51.4434 4.91602 51.8301 3.97852 51.8301C3.19336 51.8301 2.54297 51.502 2.02734 50.8457ZM1.99219 48.7246V49.1348C1.99219 49.4004 2.05859 49.6582 2.19141 49.9082C2.36328 50.2363 2.61133 50.4922 2.93555 50.6758C3.23242 50.8438 3.55469 50.9277 3.90234 50.9277C4.42578 50.9277 4.85547 50.7305 5.19141 50.3359C5.53125 49.9414 5.70117 49.4375 5.70117 48.8242C5.70117 48.1133 5.48633 47.5527 5.05664 47.1426C4.73633 46.8379 4.34961 46.6855 3.89648 46.6855C3.37305 46.6855 2.91797 46.916 2.53125 47.377C2.17188 47.8027 1.99219 48.252 1.99219 48.7246ZM10.1191 51.3906L7.6875 46.6094C7.64062 46.5195 7.61719 46.4355 7.61719 46.3574C7.61719 46.1934 7.69141 46.0605 7.83984 45.959C7.93359 45.9004 8.03125 45.8711 8.13281 45.8711C8.31641 45.8711 8.45898 45.9707 8.56055 46.1699L10.7109 50.3301L12.7617 46.1934C12.8672 45.9785 13.0254 45.8711 13.2363 45.8711C13.3574 45.8711 13.4668 45.9043 13.5645 45.9707C13.709 46.0684 13.7812 46.1992 13.7812 46.3633C13.7812 46.4609 13.7539 46.5645 13.6992 46.6738L9.82031 54.0977C9.69922 54.3359 9.53516 54.4551 9.32812 54.4551C9.23828 54.4551 9.15234 54.4336 9.07031 54.3906C8.90234 54.3008 8.81836 54.1621 8.81836 53.9746C8.81836 53.8691 8.84961 53.7598 8.91211 53.6465L10.1191 51.3906ZM19.5117 46.7207L19.6582 46.1816C19.7168 45.9668 19.8379 45.8594 20.0215 45.8594C20.291 45.8594 20.4258 45.9824 20.4258 46.2285V51.9062C20.4258 52.6992 20.166 53.3379 19.6465 53.8223C19.5254 53.9395 19.3711 54.043 19.1836 54.1328C18.7266 54.3516 18.2012 54.4609 17.6074 54.4609C16.5918 54.4609 15.8184 54.2012 15.2871 53.6816C15.1074 53.5059 15.0176 53.3457 15.0176 53.2012C15.0176 53.1035 15.0508 53.0117 15.1172 52.9258C15.2305 52.7891 15.3555 52.7207 15.4922 52.7207C15.6055 52.7207 15.7422 52.7969 15.9023 52.9492C16.3359 53.3711 16.916 53.582 17.6426 53.582C18.3262 53.582 18.8281 53.3516 19.1484 52.8906C19.3438 52.6133 19.4414 52.2812 19.4414 51.8945V50.623C19.3359 50.8457 19.1973 51.0352 19.0254 51.1914C18.6191 51.5547 18.1172 51.7363 17.5195 51.7363C17.1055 51.7363 16.707 51.6426 16.3242 51.4551C15.6523 51.127 15.1836 50.6035 14.918 49.8848C14.7891 49.5332 14.7246 49.1582 14.7246 48.7598C14.7246 48.0293 14.9414 47.3926 15.375 46.8496C15.6953 46.4512 16.0898 46.1582 16.5586 45.9707C16.8789 45.8457 17.207 45.7832 17.543 45.7832C18.0664 45.7832 18.5352 45.918 18.9492 46.1875C19.1719 46.3281 19.3594 46.5059 19.5117 46.7207ZM19.4414 48.7715V48.584C19.4414 48.2754 19.3535 47.9609 19.1777 47.6406C18.8105 46.9766 18.291 46.6445 17.6191 46.6445C17.002 46.6445 16.5117 46.9023 16.1484 47.418C15.8789 47.7969 15.7441 48.248 15.7441 48.7715C15.7441 49.3027 15.873 49.752 16.1309 50.1191C16.4863 50.623 16.9824 50.875 17.6191 50.875C18.2012 50.875 18.6719 50.6133 19.0312 50.0898C19.3047 49.6914 19.4414 49.252 19.4414 48.7715ZM27.0703 46.7207L27.2168 46.1816C27.2754 45.9668 27.3965 45.8594 27.5801 45.8594C27.8496 45.8594 27.9844 45.9824 27.9844 46.2285V51.9062C27.9844 52.6992 27.7246 53.3379 27.2051 53.8223C27.084 53.9395 26.9297 54.043 26.7422 54.1328C26.2852 54.3516 25.7598 54.4609 25.166 54.4609C24.1504 54.4609 23.377 54.2012 22.8457 53.6816C22.666 53.5059 22.5762 53.3457 22.5762 53.2012C22.5762 53.1035 22.6094 53.0117 22.6758 52.9258C22.7891 52.7891 22.9141 52.7207 23.0508 52.7207C23.1641 52.7207 23.3008 52.7969 23.4609 52.9492C23.8945 53.3711 24.4746 53.582 25.2012 53.582C25.8848 53.582 26.3867 53.3516 26.707 52.8906C26.9023 52.6133 27 52.2812 27 51.8945V50.623C26.8945 50.8457 26.7559 51.0352 26.584 51.1914C26.1777 51.5547 25.6758 51.7363 25.0781 51.7363C24.6641 51.7363 24.2656 51.6426 23.8828 51.4551C23.2109 51.127 22.7422 50.6035 22.4766 49.8848C22.3477 49.5332 22.2832 49.1582 22.2832 48.7598C22.2832 48.0293 22.5 47.3926 22.9336 46.8496C23.2539 46.4512 23.6484 46.1582 24.1172 45.9707C24.4375 45.8457 24.7656 45.7832 25.1016 45.7832C25.625 45.7832 26.0938 45.918 26.5078 46.1875C26.7305 46.3281 26.918 46.5059 27.0703 46.7207ZM27 48.7715V48.584C27 48.2754 26.9121 47.9609 26.7363 47.6406C26.3691 46.9766 25.8496 46.6445 25.1777 46.6445C24.5605 46.6445 24.0703 46.9023 23.707 47.418C23.4375 47.7969 23.3027 48.248 23.3027 48.7715C23.3027 49.3027 23.4316 49.752 23.6895 50.1191C24.0449 50.623 24.541 50.875 25.1777 50.875C25.7598 50.875 26.2305 50.6133 26.5898 50.0898C26.8633 49.6914 27 49.252 27 48.7715ZM31.834 51.3906L29.4023 46.6094C29.3555 46.5195 29.332 46.4355 29.332 46.3574C29.332 46.1934 29.4062 46.0605 29.5547 45.959C29.6484 45.9004 29.7461 45.8711 29.8477 45.8711C30.0312 45.8711 30.1738 45.9707 30.2754 46.1699L32.4258 50.3301L34.4766 46.1934C34.582 45.9785 34.7402 45.8711 34.9512 45.8711C35.0723 45.8711 35.1816 45.9043 35.2793 45.9707C35.4238 46.0684 35.4961 46.1992 35.4961 46.3633C35.4961 46.4609 35.4688 46.5645 35.4141 46.6738L31.5352 54.0977C31.4141 54.3359 31.25 54.4551 31.043 54.4551C30.9531 54.4551 30.8672 54.4336 30.7852 54.3906C30.6172 54.3008 30.5332 54.1621 30.5332 53.9746C30.5332 53.8691 30.5645 53.7598 30.627 53.6465L31.834 51.3906Z" fill="#154153"/>
<path d="M38.3379 50.9102L38.2676 51.3906C38.2129 51.7656 37.998 51.9531 37.623 51.9531C37.2051 51.9531 36.9961 51.7402 36.9961 51.3145V43.5742C36.9961 43.418 37.0449 43.2832 37.1426 43.1699C37.2871 43.0098 37.4883 42.9297 37.7461 42.9297C38.043 42.9297 38.2598 43.0312 38.3965 43.2344C38.4629 43.332 38.4961 43.4453 38.4961 43.5742V46.2637C38.9336 45.7207 39.5488 45.4492 40.3418 45.4492C41.2676 45.4492 42.0117 45.8203 42.5742 46.5625C43.0234 47.1602 43.248 47.877 43.248 48.7129C43.248 49.6152 43.0176 50.3633 42.5566 50.957C42.0137 51.6523 41.2832 52 40.3652 52C39.7793 52 39.2617 51.8184 38.8125 51.4551C38.6211 51.3027 38.4629 51.1211 38.3379 50.9102ZM38.4844 48.3496V48.8184C38.4844 49.4707 38.7246 49.9922 39.2051 50.3828C39.4824 50.6055 39.7832 50.7168 40.1074 50.7168C40.5723 50.7168 40.9492 50.5332 41.2383 50.166C41.5312 49.7988 41.6777 49.3125 41.6777 48.707C41.6777 48.0391 41.4883 47.5176 41.1094 47.1426C40.8242 46.8613 40.4805 46.7207 40.0781 46.7207C39.7305 46.7207 39.4102 46.8359 39.1172 47.0664C38.6953 47.4023 38.4844 47.8301 38.4844 48.3496ZM49.1133 46.3105L49.1484 45.9297C49.1758 45.6094 49.3848 45.4492 49.7754 45.4492C50.0879 45.4492 50.3027 45.5684 50.4199 45.8066C50.459 45.8887 50.4785 45.9805 50.4785 46.082V51.3145C50.4785 51.4473 50.4492 51.5645 50.3906 51.666C50.2734 51.8574 50.0781 51.9531 49.8047 51.9531C49.4258 51.9531 49.207 51.7559 49.1484 51.3613L49.084 50.957C48.6973 51.6523 48.0352 52 47.0977 52C46.0977 52 45.3281 51.5977 44.7891 50.793C44.4062 50.2227 44.2148 49.5312 44.2148 48.7188C44.2148 47.9492 44.4102 47.2793 44.8008 46.709C45.1211 46.2363 45.5352 45.8926 46.043 45.6777C46.3945 45.5254 46.7637 45.4492 47.1504 45.4492C48.0176 45.4492 48.6719 45.7363 49.1133 46.3105ZM48.9902 48.8184V48.3496C48.9902 47.916 48.8301 47.5371 48.5098 47.2129C48.1855 46.8848 47.8105 46.7207 47.3848 46.7207C46.8926 46.7207 46.4961 46.9258 46.1953 47.3359C45.9297 47.6992 45.7969 48.1582 45.7969 48.7129C45.7969 49.1895 45.8906 49.5977 46.0781 49.9375C46.3672 50.457 46.7988 50.7168 47.373 50.7168C47.7285 50.7168 48.0527 50.582 48.3457 50.3125C48.7754 49.918 48.9902 49.4199 48.9902 48.8184ZM53.8184 46.5391C54.041 46.2383 54.3047 46 54.6094 45.8242C55.0352 45.5742 55.4844 45.4492 55.957 45.4492C56.6641 45.4492 57.2285 45.6875 57.6504 46.1641C58.0254 46.582 58.2129 47.207 58.2129 48.0391V51.3027C58.2129 51.459 58.166 51.5918 58.0723 51.7012C57.9238 51.8691 57.7148 51.9531 57.4453 51.9531C57.1406 51.9531 56.9199 51.8477 56.7832 51.6367C56.7207 51.5391 56.6895 51.4277 56.6895 51.3027V48.209C56.6895 47.8652 56.6348 47.5762 56.5254 47.3418C56.3496 46.9668 56.0625 46.7793 55.6641 46.7793C55.2422 46.7793 54.8398 46.998 54.457 47.4355C54.1523 47.7793 54 48.1328 54 48.4961V51.3027C54 51.4707 53.9453 51.6113 53.8359 51.7246C53.6875 51.877 53.4883 51.9531 53.2383 51.9531C52.9297 51.9531 52.707 51.8477 52.5703 51.6367C52.5078 51.543 52.4766 51.4316 52.4766 51.3027V46.1172C52.4766 45.9609 52.5137 45.8301 52.5879 45.7246C52.6973 45.5645 52.8652 45.4844 53.0918 45.4844C53.4512 45.4844 53.666 45.6797 53.7363 46.0703L53.8184 46.5391ZM61.7109 49.6621V51.3027C61.7109 51.4902 61.6465 51.6406 61.5176 51.7539C61.3652 51.8867 61.1777 51.9531 60.9551 51.9531C60.627 51.9531 60.4004 51.834 60.2754 51.5957C60.2324 51.5098 60.2109 51.4121 60.2109 51.3027V43.5625C60.2109 43.4062 60.2598 43.2754 60.3574 43.1699C60.502 43.0098 60.7012 42.9297 60.9551 42.9297C61.2715 42.9297 61.4961 43.0391 61.6289 43.2578C61.6836 43.3477 61.7109 43.4492 61.7109 43.5625V47.9336L64.3125 45.7246C64.4883 45.5762 64.6699 45.502 64.8574 45.502C65.0332 45.502 65.1895 45.5684 65.3262 45.7012C65.4941 45.8691 65.5781 46.0547 65.5781 46.2578C65.5781 46.4609 65.4922 46.6309 65.3203 46.7676L63.4746 48.2441L65.625 50.6055C65.7695 50.7695 65.8418 50.9551 65.8418 51.1621C65.8418 51.4082 65.75 51.5996 65.5664 51.7363C65.3906 51.8691 65.2031 51.9355 65.0039 51.9355C64.7773 51.9355 64.584 51.8379 64.4238 51.6426L62.3848 49.1172L61.7109 49.6621Z" fill="#FBDB37"/>
</svg>
