<svg width="67" height="14" viewBox="0 0 67 14" fill="none" xmlns="http://www.w3.org/2000/svg">
<path d="M2.02734 9.8457V13.0039C2.02734 13.0859 2.00781 13.1602 1.96875 13.2266C1.87891 13.3828 1.73047 13.4609 1.52344 13.4609C1.33984 13.4609 1.19922 13.3965 1.10156 13.2676C1.04688 13.1973 1.01953 13.1094 1.01953 13.0039V5.31055C1.01953 5.0332 1.16211 4.89453 1.44727 4.89453C1.68945 4.89453 1.82617 5.02539 1.85742 5.28711L1.94531 5.94922C2.17578 5.55859 2.48438 5.26172 2.87109 5.05859C3.21484 4.875 3.58008 4.7832 3.9668 4.7832C4.8418 4.7832 5.53516 5.09961 6.04688 5.73242C6.49609 6.2832 6.7207 6.97852 6.7207 7.81836C6.7207 8.52539 6.54102 9.14258 6.18164 9.66992C5.65039 10.4434 4.91602 10.8301 3.97852 10.8301C3.19336 10.8301 2.54297 10.502 2.02734 9.8457ZM1.99219 7.72461V8.13477C1.99219 8.40039 2.05859 8.6582 2.19141 8.9082C2.36328 9.23633 2.61133 9.49219 2.93555 9.67578C3.23242 9.84375 3.55469 9.92773 3.90234 9.92773C4.42578 9.92773 4.85547 9.73047 5.19141 9.33594C5.53125 8.94141 5.70117 8.4375 5.70117 7.82422C5.70117 7.11328 5.48633 6.55273 5.05664 6.14258C4.73633 5.83789 4.34961 5.68555 3.89648 5.68555C3.37305 5.68555 2.91797 5.91602 2.53125 6.37695C2.17188 6.80273 1.99219 7.25195 1.99219 7.72461ZM10.1191 10.3906L7.6875 5.60938C7.64062 5.51953 7.61719 5.43555 7.61719 5.35742C7.61719 5.19336 7.69141 5.06055 7.83984 4.95898C7.93359 4.90039 8.03125 4.87109 8.13281 4.87109C8.31641 4.87109 8.45898 4.9707 8.56055 5.16992L10.7109 9.33008L12.7617 5.19336C12.8672 4.97852 13.0254 4.87109 13.2363 4.87109C13.3574 4.87109 13.4668 4.9043 13.5645 4.9707C13.709 5.06836 13.7812 5.19922 13.7812 5.36328C13.7812 5.46094 13.7539 5.56445 13.6992 5.67383L9.82031 13.0977C9.69922 13.3359 9.53516 13.4551 9.32812 13.4551C9.23828 13.4551 9.15234 13.4336 9.07031 13.3906C8.90234 13.3008 8.81836 13.1621 8.81836 12.9746C8.81836 12.8691 8.84961 12.7598 8.91211 12.6465L10.1191 10.3906ZM19.5117 5.7207L19.6582 5.18164C19.7168 4.9668 19.8379 4.85938 20.0215 4.85938C20.291 4.85938 20.4258 4.98242 20.4258 5.22852V10.9062C20.4258 11.6992 20.166 12.3379 19.6465 12.8223C19.5254 12.9395 19.3711 13.043 19.1836 13.1328C18.7266 13.3516 18.2012 13.4609 17.6074 13.4609C16.5918 13.4609 15.8184 13.2012 15.2871 12.6816C15.1074 12.5059 15.0176 12.3457 15.0176 12.2012C15.0176 12.1035 15.0508 12.0117 15.1172 11.9258C15.2305 11.7891 15.3555 11.7207 15.4922 11.7207C15.6055 11.7207 15.7422 11.7969 15.9023 11.9492C16.3359 12.3711 16.916 12.582 17.6426 12.582C18.3262 12.582 18.8281 12.3516 19.1484 11.8906C19.3438 11.6133 19.4414 11.2812 19.4414 10.8945V9.62305C19.3359 9.8457 19.1973 10.0352 19.0254 10.1914C18.6191 10.5547 18.1172 10.7363 17.5195 10.7363C17.1055 10.7363 16.707 10.6426 16.3242 10.4551C15.6523 10.127 15.1836 9.60352 14.918 8.88477C14.7891 8.5332 14.7246 8.1582 14.7246 7.75977C14.7246 7.0293 14.9414 6.39258 15.375 5.84961C15.6953 5.45117 16.0898 5.1582 16.5586 4.9707C16.8789 4.8457 17.207 4.7832 17.543 4.7832C18.0664 4.7832 18.5352 4.91797 18.9492 5.1875C19.1719 5.32812 19.3594 5.50586 19.5117 5.7207ZM19.4414 7.77148V7.58398C19.4414 7.27539 19.3535 6.96094 19.1777 6.64062C18.8105 5.97656 18.291 5.64453 17.6191 5.64453C17.002 5.64453 16.5117 5.90234 16.1484 6.41797C15.8789 6.79688 15.7441 7.24805 15.7441 7.77148C15.7441 8.30273 15.873 8.75195 16.1309 9.11914C16.4863 9.62305 16.9824 9.875 17.6191 9.875C18.2012 9.875 18.6719 9.61328 19.0312 9.08984C19.3047 8.69141 19.4414 8.25195 19.4414 7.77148ZM27.0703 5.7207L27.2168 5.18164C27.2754 4.9668 27.3965 4.85938 27.5801 4.85938C27.8496 4.85938 27.9844 4.98242 27.9844 5.22852V10.9062C27.9844 11.6992 27.7246 12.3379 27.2051 12.8223C27.084 12.9395 26.9297 13.043 26.7422 13.1328C26.2852 13.3516 25.7598 13.4609 25.166 13.4609C24.1504 13.4609 23.377 13.2012 22.8457 12.6816C22.666 12.5059 22.5762 12.3457 22.5762 12.2012C22.5762 12.1035 22.6094 12.0117 22.6758 11.9258C22.7891 11.7891 22.9141 11.7207 23.0508 11.7207C23.1641 11.7207 23.3008 11.7969 23.4609 11.9492C23.8945 12.3711 24.4746 12.582 25.2012 12.582C25.8848 12.582 26.3867 12.3516 26.707 11.8906C26.9023 11.6133 27 11.2812 27 10.8945V9.62305C26.8945 9.8457 26.7559 10.0352 26.584 10.1914C26.1777 10.5547 25.6758 10.7363 25.0781 10.7363C24.6641 10.7363 24.2656 10.6426 23.8828 10.4551C23.2109 10.127 22.7422 9.60352 22.4766 8.88477C22.3477 8.5332 22.2832 8.1582 22.2832 7.75977C22.2832 7.0293 22.5 6.39258 22.9336 5.84961C23.2539 5.45117 23.6484 5.1582 24.1172 4.9707C24.4375 4.8457 24.7656 4.7832 25.1016 4.7832C25.625 4.7832 26.0938 4.91797 26.5078 5.1875C26.7305 5.32812 26.918 5.50586 27.0703 5.7207ZM27 7.77148V7.58398C27 7.27539 26.9121 6.96094 26.7363 6.64062C26.3691 5.97656 25.8496 5.64453 25.1777 5.64453C24.5605 5.64453 24.0703 5.90234 23.707 6.41797C23.4375 6.79688 23.3027 7.24805 23.3027 7.77148C23.3027 8.30273 23.4316 8.75195 23.6895 9.11914C24.0449 9.62305 24.541 9.875 25.1777 9.875C25.7598 9.875 26.2305 9.61328 26.5898 9.08984C26.8633 8.69141 27 8.25195 27 7.77148ZM31.834 10.3906L29.4023 5.60938C29.3555 5.51953 29.332 5.43555 29.332 5.35742C29.332 5.19336 29.4062 5.06055 29.5547 4.95898C29.6484 4.90039 29.7461 4.87109 29.8477 4.87109C30.0312 4.87109 30.1738 4.9707 30.2754 5.16992L32.4258 9.33008L34.4766 5.19336C34.582 4.97852 34.7402 4.87109 34.9512 4.87109C35.0723 4.87109 35.1816 4.9043 35.2793 4.9707C35.4238 5.06836 35.4961 5.19922 35.4961 5.36328C35.4961 5.46094 35.4688 5.56445 35.4141 5.67383L31.5352 13.0977C31.4141 13.3359 31.25 13.4551 31.043 13.4551C30.9531 13.4551 30.8672 13.4336 30.7852 13.3906C30.6172 13.3008 30.5332 13.1621 30.5332 12.9746C30.5332 12.8691 30.5645 12.7598 30.627 12.6465L31.834 10.3906Z" fill="#9F5C5C"/>
<path d="M38.3379 9.91016L38.2676 10.3906C38.2129 10.7656 37.998 10.9531 37.623 10.9531C37.2051 10.9531 36.9961 10.7402 36.9961 10.3145V2.57422C36.9961 2.41797 37.0449 2.2832 37.1426 2.16992C37.2871 2.00977 37.4883 1.92969 37.7461 1.92969C38.043 1.92969 38.2598 2.03125 38.3965 2.23438C38.4629 2.33203 38.4961 2.44531 38.4961 2.57422V5.26367C38.9336 4.7207 39.5488 4.44922 40.3418 4.44922C41.2676 4.44922 42.0117 4.82031 42.5742 5.5625C43.0234 6.16016 43.248 6.87695 43.248 7.71289C43.248 8.61523 43.0176 9.36328 42.5566 9.95703C42.0137 10.6523 41.2832 11 40.3652 11C39.7793 11 39.2617 10.8184 38.8125 10.4551C38.6211 10.3027 38.4629 10.1211 38.3379 9.91016ZM38.4844 7.34961V7.81836C38.4844 8.4707 38.7246 8.99219 39.2051 9.38281C39.4824 9.60547 39.7832 9.7168 40.1074 9.7168C40.5723 9.7168 40.9492 9.5332 41.2383 9.16602C41.5312 8.79883 41.6777 8.3125 41.6777 7.70703C41.6777 7.03906 41.4883 6.51758 41.1094 6.14258C40.8242 5.86133 40.4805 5.7207 40.0781 5.7207C39.7305 5.7207 39.4102 5.83594 39.1172 6.06641C38.6953 6.40234 38.4844 6.83008 38.4844 7.34961ZM49.1133 5.31055L49.1484 4.92969C49.1758 4.60938 49.3848 4.44922 49.7754 4.44922C50.0879 4.44922 50.3027 4.56836 50.4199 4.80664C50.459 4.88867 50.4785 4.98047 50.4785 5.08203V10.3145C50.4785 10.4473 50.4492 10.5645 50.3906 10.666C50.2734 10.8574 50.0781 10.9531 49.8047 10.9531C49.4258 10.9531 49.207 10.7559 49.1484 10.3613L49.084 9.95703C48.6973 10.6523 48.0352 11 47.0977 11C46.0977 11 45.3281 10.5977 44.7891 9.79297C44.4062 9.22266 44.2148 8.53125 44.2148 7.71875C44.2148 6.94922 44.4102 6.2793 44.8008 5.70898C45.1211 5.23633 45.5352 4.89258 46.043 4.67773C46.3945 4.52539 46.7637 4.44922 47.1504 4.44922C48.0176 4.44922 48.6719 4.73633 49.1133 5.31055ZM48.9902 7.81836V7.34961C48.9902 6.91602 48.8301 6.53711 48.5098 6.21289C48.1855 5.88477 47.8105 5.7207 47.3848 5.7207C46.8926 5.7207 46.4961 5.92578 46.1953 6.33594C45.9297 6.69922 45.7969 7.1582 45.7969 7.71289C45.7969 8.18945 45.8906 8.59766 46.0781 8.9375C46.3672 9.45703 46.7988 9.7168 47.373 9.7168C47.7285 9.7168 48.0527 9.58203 48.3457 9.3125C48.7754 8.91797 48.9902 8.41992 48.9902 7.81836ZM53.8184 5.53906C54.041 5.23828 54.3047 5 54.6094 4.82422C55.0352 4.57422 55.4844 4.44922 55.957 4.44922C56.6641 4.44922 57.2285 4.6875 57.6504 5.16406C58.0254 5.58203 58.2129 6.20703 58.2129 7.03906V10.3027C58.2129 10.459 58.166 10.5918 58.0723 10.7012C57.9238 10.8691 57.7148 10.9531 57.4453 10.9531C57.1406 10.9531 56.9199 10.8477 56.7832 10.6367C56.7207 10.5391 56.6895 10.4277 56.6895 10.3027V7.20898C56.6895 6.86523 56.6348 6.57617 56.5254 6.3418C56.3496 5.9668 56.0625 5.7793 55.6641 5.7793C55.2422 5.7793 54.8398 5.99805 54.457 6.43555C54.1523 6.7793 54 7.13281 54 7.49609V10.3027C54 10.4707 53.9453 10.6113 53.8359 10.7246C53.6875 10.877 53.4883 10.9531 53.2383 10.9531C52.9297 10.9531 52.707 10.8477 52.5703 10.6367C52.5078 10.543 52.4766 10.4316 52.4766 10.3027V5.11719C52.4766 4.96094 52.5137 4.83008 52.5879 4.72461C52.6973 4.56445 52.8652 4.48438 53.0918 4.48438C53.4512 4.48438 53.666 4.67969 53.7363 5.07031L53.8184 5.53906ZM61.7109 8.66211V10.3027C61.7109 10.4902 61.6465 10.6406 61.5176 10.7539C61.3652 10.8867 61.1777 10.9531 60.9551 10.9531C60.627 10.9531 60.4004 10.834 60.2754 10.5957C60.2324 10.5098 60.2109 10.4121 60.2109 10.3027V2.5625C60.2109 2.40625 60.2598 2.27539 60.3574 2.16992C60.502 2.00977 60.7012 1.92969 60.9551 1.92969C61.2715 1.92969 61.4961 2.03906 61.6289 2.25781C61.6836 2.34766 61.7109 2.44922 61.7109 2.5625V6.93359L64.3125 4.72461C64.4883 4.57617 64.6699 4.50195 64.8574 4.50195C65.0332 4.50195 65.1895 4.56836 65.3262 4.70117C65.4941 4.86914 65.5781 5.05469 65.5781 5.25781C65.5781 5.46094 65.4922 5.63086 65.3203 5.76758L63.4746 7.24414L65.625 9.60547C65.7695 9.76953 65.8418 9.95508 65.8418 10.1621C65.8418 10.4082 65.75 10.5996 65.5664 10.7363C65.3906 10.8691 65.2031 10.9355 65.0039 10.9355C64.7773 10.9355 64.584 10.8379 64.4238 10.6426L62.3848 8.11719L61.7109 8.66211Z" fill="#FBDB37"/>
</svg>
